# xmcd
#
# Track frame offsets: 
#        150
#        17539
#        41619
#        58243
#        82250
#        99862
#        127757
#        141808
#        167681
#        184782
#        204930
#        227884
#        249346
#        277951
#        299428
#        314306
#        337817
#
# Disc length: 4770 seconds
#
# Revision: 2
# Processed by: cddbd v1.5.2PL0 Copyright (c) Steve Scherf et al.
# Submitted via: ExactAudioCopy v0.95a5
#
DISCID=e612a011
DTITLE=Various Artist - GOOD WHISKEY BLUES  bottle 8
DYEAR=2005
DGENRE=Blues
TTITLE0=PAUL WOODCOCK - Hard Way
TTITLE1=VARGAS BLUES BAND - Do You Believe In Love
TTITLE2=FREDDIE and The SCREAMERS - Raised On The Blues
TTITLE3=SMOKIN' JOE KUBEK - Walk On
TTITLE4=LEFTHAND FREDDY and The ACES - Keep My Cool
TTITLE5=BILL PERRY - Sneaking Around
TTITLE6=EDDY CEBALOS - Bumble Be
TTITLE7=SMOKEY WILSON - The Man From Mars
TTITLE8=TINSLEY ELLIS - Dangling By A Thread
TTITLE9=ERIC CULBERSON - Morning Light Blues
TTITLE10=Dr.HECTOR and The GROOVE INJECTORS - Safe In Your Arms Again
TTITLE11=PRESTON SHANNON - Jail Of Love
TTITLE12=PAT TRAVERS - The Rain
TTITLE13=PAT BOYACK and The PROWLERS - I Known It's Over
TTITLE14=SUNNY LAND BLUES BAND - Bang For The Buck
TTITLE15=GUITAR SHORTY - You Give Me The Blues Body
TTITLE16=GLENN LANE - Stay Gone
EXTD=
EXTT0=
EXTT1=
EXTT2=
EXTT3=
EXTT4=
EXTT5=
EXTT6=
EXTT7=
EXTT8=
EXTT9=
EXTT10=
EXTT11=
EXTT12=
EXTT13=
EXTT14=
EXTT15=
EXTT16=
PLAYORDER=
